<svg xmlns="http://www.w3.org/2000/svg" width="1500" height="960" viewBox="0 0 1500 960" fill="none">
  <rect width="1500" height="960" fill="#121412"/>
  <rect x="46" y="38" width="1408" height="884" rx="8" fill="#1B1E1A" stroke="#484D46"/>
  <rect x="46" y="38" width="1408" height="72" rx="8" fill="#1B1E1A"/><path d="M46 110H1454" stroke="#484D46"/>
  <rect x="74" y="61" width="27" height="27" rx="3" fill="#F3F5F0"/><path d="M81 69H94M81 75H91M81 81H88" stroke="#171917" stroke-width="2" stroke-linecap="round"/>
  <text x="114" y="81" fill="#F3F5F0" font-family="Georgia, serif" font-size="22" font-weight="700">FHS</text>
  <text x="201" y="80" fill="#F3F5F0" font-family="Arial, sans-serif" font-size="14" font-weight="700">DEFECTS</text><text x="300" y="80" fill="#B8BEB6" font-family="Arial, sans-serif" font-size="14">ESCAPES</text><text x="393" y="80" fill="#B8BEB6" font-family="Arial, sans-serif" font-size="14">REFERENCE</text><path d="M480 73L485 78L490 73" stroke="#B8BEB6" stroke-width="1.5" stroke-linecap="round" stroke-linejoin="round"/>
  <rect x="1199" y="58" width="36" height="36" rx="4" fill="#242924" stroke="#4D544C"/><path d="M1217 66A11 11 0 1 0 1226 83A9 9 0 1 1 1217 66Z" stroke="#F3F5F0" stroke-width="1.5" stroke-linejoin="round"/>
  <circle cx="1260" cy="76" r="15" fill="#3A4039"/><text x="1254" y="81" fill="#F3F5F0" font-family="Arial, sans-serif" font-size="10" font-weight="700">AF</text><path d="M1285 73L1290 78L1295 73" stroke="#B8BEB6" stroke-width="1.5" stroke-linecap="round" stroke-linejoin="round"/><text x="1313" y="80" fill="#F3F5F0" font-family="Arial, sans-serif" font-size="14">Andrew Fahmy</text>

  <text x="84" y="174" fill="#F3F5F0" font-family="Georgia, serif" font-size="36" font-weight="700">Defects</text><text x="85" y="203" fill="#B8BEB6" font-family="Arial, sans-serif" font-size="14">Open quality faults from the production line</text>
  <rect x="1265" y="150" width="153" height="44" rx="4" fill="#F3F5F0"/><path d="M1287 172H1301M1294 165V179" stroke="#171917" stroke-width="1.8" stroke-linecap="round"/><text x="1312" y="178" fill="#171917" font-family="Arial, sans-serif" font-size="14" font-weight="700">New defect</text>

  <rect x="84" y="237" width="1332" height="100" rx="5" fill="#242924" stroke="#3D443C"/>
  <text x="106" y="265" fill="#B8BEB6" font-family="Arial, sans-serif" font-size="11" font-weight="700">STATION</text><rect x="106" y="276" width="224" height="40" rx="3" fill="#171A17" stroke="#596058"/><text x="119" y="301" fill="#F3F5F0" font-family="Arial, sans-serif" font-size="14">All stations</text><path d="M302 292L307 297L312 292" stroke="#F3F5F0" stroke-width="1.5" stroke-linecap="round" stroke-linejoin="round"/>
  <text x="354" y="265" fill="#B8BEB6" font-family="Arial, sans-serif" font-size="11" font-weight="700">ERROR CODE</text><rect x="354" y="276" width="224" height="40" rx="3" fill="#171A17" stroke="#596058"/><text x="367" y="301" fill="#F3F5F0" font-family="Arial, sans-serif" font-size="14">All error codes</text><path d="M550 292L555 297L560 292" stroke="#F3F5F0" stroke-width="1.5" stroke-linecap="round" stroke-linejoin="round"/>
  <text x="602" y="265" fill="#B8BEB6" font-family="Arial, sans-serif" font-size="11" font-weight="700">SEVERITY</text><rect x="602" y="276" width="178" height="40" rx="3" fill="#171A17" stroke="#596058"/><text x="615" y="301" fill="#F3F5F0" font-family="Arial, sans-serif" font-size="14">All severities</text><path d="M752 292L757 297L762 292" stroke="#F3F5F0" stroke-width="1.5" stroke-linecap="round" stroke-linejoin="round"/>
  <text x="817" y="265" fill="#B8BEB6" font-family="Arial, sans-serif" font-size="11" font-weight="700">STATUS</text><circle cx="823" cy="296" r="7" fill="#F3F5F0"/><circle cx="823" cy="296" r="2" fill="#171917"/><text x="837" y="301" fill="#F3F5F0" font-family="Arial, sans-serif" font-size="14" font-weight="700">Open</text><circle cx="905" cy="296" r="7" stroke="#B8BEB6" stroke-width="1.3"/><text x="919" y="301" fill="#B8BEB6" font-family="Arial, sans-serif" font-size="14">Resolved</text><circle cx="1011" cy="296" r="7" stroke="#B8BEB6" stroke-width="1.3"/><text x="1025" y="301" fill="#B8BEB6" font-family="Arial, sans-serif" font-size="14">All</text><text x="1338" y="301" fill="#F3F5F0" font-family="Arial, sans-serif" font-size="14" font-weight="700">Clear</text>

  <rect x="84" y="370" width="1332" height="446" rx="5" fill="#1B1E1A" stroke="#484D46"/><rect x="85" y="371" width="1330" height="49" rx="5" fill="#292E29"/>
  <text x="108" y="401" fill="#C7CCC5" font-family="Arial, sans-serif" font-size="11" font-weight="700">SEVERITY</text><text x="252" y="401" fill="#C7CCC5" font-family="Arial, sans-serif" font-size="11" font-weight="700">STATION</text><text x="373" y="401" fill="#C7CCC5" font-family="Arial, sans-serif" font-size="11" font-weight="700">ERROR CODE</text><text x="526" y="401" fill="#C7CCC5" font-family="Arial, sans-serif" font-size="11" font-weight="700">DESCRIPTION</text><text x="1036" y="401" fill="#C7CCC5" font-family="Arial, sans-serif" font-size="11" font-weight="700">RAISED BY</text><text x="1220" y="401" fill="#C7CCC5" font-family="Arial, sans-serif" font-size="11" font-weight="700">RAISED</text>
  <g font-family="Arial, sans-serif">
    <rect x="108" y="451" width="12" height="12" rx="1" fill="#EE6C61"/><text x="130" y="462" fill="#F3F5F0" font-size="12" font-weight="700">CRITICAL</text><text x="252" y="462" fill="#F3F5F0" font-family="monospace" font-size="14" font-weight="700">ST-04</text><text x="373" y="462" fill="#F3F5F0" font-family="monospace" font-size="14" font-weight="700">EC-1021</text><text x="526" y="462" fill="#F3F5F0" font-size="14">Weld seam porosity on outer bracket, third pass</text><text x="1036" y="462" fill="#F3F5F0" font-size="14">M. Haddad</text><text x="1220" y="462" fill="#F3F5F0" font-size="14">09:41</text><path d="M85 499H1415" stroke="#363C35"/>
    <rect x="108" y="531" width="12" height="12" rx="1" fill="#F1B64E"/><text x="130" y="542" fill="#F3F5F0" font-size="12" font-weight="700">MAJOR</text><text x="252" y="542" fill="#F3F5F0" font-family="monospace" font-size="14" font-weight="700">ST-02</text><text x="373" y="542" fill="#F3F5F0" font-family="monospace" font-size="14" font-weight="700">EC-0330</text><text x="526" y="542" fill="#F3F5F0" font-size="14">Torque out of specification after final assembly</text><text x="1036" y="542" fill="#F3F5F0" font-size="14">L. Farag</text><text x="1220" y="542" fill="#F3F5F0" font-size="14">09:12</text><path d="M85 579H1415" stroke="#363C35"/>
    <rect x="108" y="611" width="12" height="12" rx="1" fill="#1B1E1A" stroke="#CAD0C7" stroke-width="1.5"/><text x="130" y="622" fill="#F3F5F0" font-size="12" font-weight="700">MINOR</text><text x="252" y="622" fill="#F3F5F0" font-family="monospace" font-size="14" font-weight="700">ST-11</text><text x="373" y="622" fill="#F3F5F0" font-family="monospace" font-size="14" font-weight="700">EC-0075</text><text x="526" y="622" fill="#F3F5F0" font-size="14">Label misaligned on finished goods carton</text><text x="1036" y="622" fill="#F3F5F0" font-size="14">M. Haddad</text><text x="1220" y="622" fill="#F3F5F0" font-size="14">08:58</text><path d="M85 659H1415" stroke="#363C35"/>
    <rect x="108" y="691" width="12" height="12" rx="1" fill="#F1B64E"/><text x="130" y="702" fill="#F3F5F0" font-size="12" font-weight="700">MAJOR</text><text x="252" y="702" fill="#F3F5F0" font-family="monospace" font-size="14" font-weight="700">ST-04</text><text x="373" y="702" fill="#F3F5F0" font-family="monospace" font-size="14" font-weight="700">EC-1021</text><text x="526" y="702" fill="#F3F5F0" font-size="14">Porosity found on second-pass weld inspection</text><text x="1036" y="702" fill="#F3F5F0" font-size="14">N. Aziz</text><text x="1220" y="702" fill="#F3F5F0" font-size="14">08:30</text><path d="M85 739H1415" stroke="#363C35"/>
    <rect x="108" y="771" width="12" height="12" rx="1" fill="#1B1E1A" stroke="#CAD0C7" stroke-width="1.5"/><text x="130" y="782" fill="#F3F5F0" font-size="12" font-weight="700">MINOR</text><text x="252" y="782" fill="#F3F5F0" font-family="monospace" font-size="14" font-weight="700">ST-07</text><text x="373" y="782" fill="#F3F5F0" font-family="monospace" font-size="14" font-weight="700">EC-0210</text><text x="526" y="782" fill="#F3F5F0" font-size="14">Surface scratch near lower edge of housing</text><text x="1036" y="782" fill="#F3F5F0" font-size="14">L. Farag</text><text x="1220" y="782" fill="#F3F5F0" font-size="14">08:02</text>
  </g>
  <text x="107" y="866" fill="#B8BEB6" font-family="Arial, sans-serif" font-size="14">1-50 of 1,372 open defects</text><path d="M337 848V878" stroke="#484D46"/><text x="356" y="865" fill="#B8BEB6" font-family="Arial, sans-serif" font-size="13">Rows per page</text><rect x="452" y="838" width="72" height="40" rx="3" fill="#242924" stroke="#596058"/><text x="468" y="865" fill="#F3F5F0" font-family="Arial, sans-serif" font-size="14" font-weight="700">50</text><path d="M497 856L502 861L507 856" stroke="#F3F5F0" stroke-width="1.5" stroke-linecap="round" stroke-linejoin="round"/>
  <rect x="742" y="838" width="40" height="40" rx="3" fill="#202420" stroke="#343A34"/><path d="M765 858L759 864L765 870" stroke="#758074" stroke-width="1.5" stroke-linecap="round" stroke-linejoin="round"/><rect x="791" y="838" width="40" height="40" rx="3" fill="#F3F5F0"/><text x="806" y="865" fill="#171917" font-family="Arial, sans-serif" font-size="14" font-weight="700">1</text><text x="849" y="865" fill="#F3F5F0" font-family="Arial, sans-serif" font-size="14">2</text><text x="879" y="865" fill="#F3F5F0" font-family="Arial, sans-serif" font-size="14">3</text><text x="909" y="865" fill="#F3F5F0" font-family="Arial, sans-serif" font-size="14">4</text><text x="939" y="865" fill="#B8BEB6" font-family="Arial, sans-serif" font-size="14">...</text><text x="972" y="865" fill="#F3F5F0" font-family="Arial, sans-serif" font-size="14">28</text><rect x="1005" y="838" width="40" height="40" rx="3" fill="#242924" stroke="#596058"/><path d="M1021 858L1027 864L1021 870" stroke="#F3F5F0" stroke-width="1.5" stroke-linecap="round" stroke-linejoin="round"/>
  <text x="1125" y="865" fill="#B8BEB6" font-family="Arial, sans-serif" font-size="13">Jump to page</text><rect x="1217" y="838" width="48" height="40" rx="3" fill="#171A17" stroke="#849082" stroke-width="1.5"/><text x="1233" y="865" fill="#F3F5F0" font-family="Arial, sans-serif" font-size="14" font-weight="700">1</text><rect x="1274" y="838" width="40" height="40" rx="3" fill="#F3F5F0"/><path d="M1286 858L1298 864L1286 870M1288 864H1302" stroke="#171917" stroke-width="1.5" stroke-linecap="round" stroke-linejoin="round"/>
</svg>