<svg xmlns="http://www.w3.org/2000/svg" width="1500" height="960" viewBox="0 0 1500 960" fill="none">
  <rect width="1500" height="960" fill="#121412"/>
  <text x="84" y="92" fill="#F3F5F0" font-family="Georgia, serif" font-size="34" font-weight="700">Dark mode on mobile</text><text x="84" y="122" fill="#B8BEB6" font-family="Arial, sans-serif" font-size="14">The same semantic contrast and in-reach actions, without a separate mobile colour system.</text>
  <text x="380" y="171" fill="#B8BEB6" font-family="Arial, sans-serif" font-size="12" font-weight="700">OPEN DEFECTS</text><text x="880" y="171" fill="#B8BEB6" font-family="Arial, sans-serif" font-size="12" font-weight="700">REPORT AN ESCAPE</text>
  <rect x="341" y="194" width="360" height="683" rx="29" fill="#0A0C0A"/><rect x="352" y="207" width="338" height="657" rx="22" fill="#1B1E1A"/><rect x="480" y="216" width="82" height="18" rx="9" fill="#0A0C0A"/>
  <text x="381" y="282" fill="#F3F5F0" font-family="Georgia, serif" font-size="23" font-weight="700">FHS</text><path d="M626 267H644M626 273H644M626 279H644" stroke="#F3F5F0" stroke-width="2" stroke-linecap="round"/><path d="M371 300H671" stroke="#484D46"/>
  <text x="371" y="337" fill="#F3F5F0" font-family="Georgia, serif" font-size="27" font-weight="700">Defects</text><text x="371" y="361" fill="#B8BEB6" font-family="Arial, sans-serif" font-size="12">23 open faults</text><rect x="594" y="319" width="77" height="35" rx="4" fill="#F3F5F0"/><path d="M608 336H620M614 330V342" stroke="#171917" stroke-width="1.6" stroke-linecap="round"/><text x="628" y="341" fill="#171917" font-family="Arial, sans-serif" font-size="12" font-weight="700">New</text>
  <rect x="371" y="380" width="300" height="39" rx="4" fill="#242924" stroke="#3D443C"/><path d="M387 393H401M387 399H401M387 405H401" stroke="#F3F5F0" stroke-width="1.5" stroke-linecap="round"/><text x="411" y="405" fill="#F3F5F0" font-family="Arial, sans-serif" font-size="13" font-weight="700">Filters</text><text x="608" y="405" fill="#B8BEB6" font-family="Arial, sans-serif" font-size="12">Open</text>
  <rect x="371" y="438" width="300" height="103" rx="5" fill="#242924" stroke="#484D46"/><rect x="387" y="456" width="11" height="11" rx="1" fill="#EE6C61"/><text x="407" y="466" fill="#FFD7D3" font-family="Arial, sans-serif" font-size="11" font-weight="700">CRITICAL</text><text x="387" y="493" fill="#F3F5F0" font-family="monospace" font-size="13" font-weight="700">ST-04 / EC-1021</text><text x="387" y="517" fill="#F3F5F0" font-family="Arial, sans-serif" font-size="13">Weld seam porosity on outer bracket</text><text x="387" y="533" fill="#B8BEB6" font-family="Arial, sans-serif" font-size="11">M. Haddad   09:41</text>
  <rect x="371" y="552" width="300" height="103" rx="5" fill="#242924" stroke="#484D46"/><rect x="387" y="570" width="11" height="11" rx="1" fill="#F1B64E"/><text x="407" y="580" fill="#FFE3AB" font-family="Arial, sans-serif" font-size="11" font-weight="700">MAJOR</text><text x="387" y="607" fill="#F3F5F0" font-family="monospace" font-size="13" font-weight="700">ST-02 / EC-0330</text><text x="387" y="631" fill="#F3F5F0" font-family="Arial, sans-serif" font-size="13">Torque out of specification</text><text x="387" y="647" fill="#B8BEB6" font-family="Arial, sans-serif" font-size="11">L. Farag   09:12</text>
  <rect x="371" y="666" width="300" height="103" rx="5" fill="#242924" stroke="#484D46"/><rect x="387" y="684" width="11" height="11" rx="1" fill="#1B1E1A" stroke="#CAD0C7" stroke-width="1.4"/><text x="407" y="694" fill="#F3F5F0" font-family="Arial, sans-serif" font-size="11" font-weight="700">MINOR</text><text x="387" y="721" fill="#F3F5F0" font-family="monospace" font-size="13" font-weight="700">ST-11 / EC-0075</text><text x="387" y="745" fill="#F3F5F0" font-family="Arial, sans-serif" font-size="13">Label misaligned on finished carton</text><text x="387" y="761" fill="#B8BEB6" font-family="Arial, sans-serif" font-size="11">M. Haddad   08:58</text>
  <rect x="371" y="795" width="300" height="49" fill="#1B1E1A"/><path d="M371 795H671" stroke="#484D46"/><text x="397" y="825" fill="#F3F5F0" font-family="Arial, sans-serif" font-size="11" font-weight="700">DEFECTS</text><text x="492" y="825" fill="#B8BEB6" font-family="Arial, sans-serif" font-size="11">ESCAPES</text><text x="589" y="825" fill="#B8BEB6" font-family="Arial, sans-serif" font-size="11">MORE</text>
  <rect x="841" y="194" width="360" height="683" rx="29" fill="#0A0C0A"/><rect x="852" y="207" width="338" height="657" rx="22" fill="#1B1E1A"/><rect x="980" y="216" width="82" height="18" rx="9" fill="#0A0C0A"/>
  <text x="871" y="277" fill="#B8BEB6" font-family="Arial, sans-serif" font-size="12" font-weight="700">&lt; ESCAPES</text><text x="871" y="320" fill="#F3F5F0" font-family="Georgia, serif" font-size="27" font-weight="700">Report an escape</text><text x="871" y="345" fill="#B8BEB6" font-family="Arial, sans-serif" font-size="12">Capture what reached the customer.</text>
  <text x="871" y="387" fill="#F3F5F0" font-family="Arial, sans-serif" font-size="13" font-weight="700">Customer *</text><rect x="871" y="399" width="300" height="43" rx="4" fill="#171A17" stroke="#899287" stroke-width="1.3"/><text x="884" y="426" fill="#F3F5F0" font-family="monospace" font-size="12" font-weight="700">C-014</text><text x="931" y="426" fill="#B8BEB6" font-family="Arial, sans-serif" font-size="12">Alexandria Industrial Supply</text>
  <text x="871" y="483" fill="#F3F5F0" font-family="Arial, sans-serif" font-size="13" font-weight="700">Error code *</text><rect x="871" y="495" width="300" height="43" rx="4" fill="#171A17" stroke="#899287" stroke-width="1.3"/><text x="884" y="522" fill="#F3F5F0" font-family="monospace" font-size="12" font-weight="700">EC-1021</text><text x="949" y="522" fill="#B8BEB6" font-family="Arial, sans-serif" font-size="12">Weld porosity</text>
  <rect x="871" y="553" width="118" height="27" rx="14" fill="#43221F"/><rect x="884" y="561" width="9" height="9" rx="1" fill="#EE6C61"/><text x="902" y="571" fill="#FFD7D3" font-family="Arial, sans-serif" font-size="10" font-weight="700">CRITICAL</text>
  <text x="871" y="624" fill="#F3F5F0" font-family="Arial, sans-serif" font-size="13" font-weight="700">Customer report *</text><text x="1127" y="624" fill="#B8BEB6" font-family="Arial, sans-serif" font-size="11">0 / 500</text><rect x="871" y="637" width="300" height="112" rx="4" fill="#171A17" stroke="#899287" stroke-width="1.3"/><text x="884" y="663" fill="#9AA29A" font-family="Arial, sans-serif" font-size="12">Describe what the customer found.</text>
  <rect x="852" y="781" width="338" height="83" fill="#1B1E1A"/><path d="M852 781H1190" stroke="#484D46"/><text x="938" y="830" fill="#F3F5F0" font-family="Arial, sans-serif" font-size="13" font-weight="700">Cancel</text><rect x="1026" y="807" width="145" height="42" rx="4" fill="#F3F5F0"/><text x="1050" y="833" fill="#171917" font-family="Arial, sans-serif" font-size="12" font-weight="700">Report escape</text>
</svg>